<svg width="0" height="0" class="hidden" xmlns="http://www.w3.org/2000/svg">
 
 // Header

   <symbol id="telegram" viewBox="0 0 24 24" fill="currentColor">
    <path d="M9.97 15.92L9.6 19c.57 0 .81-.24 1.1-.52l2.65-2.42 5.5 4.02c1.01.56 1.72.27 1.98-.94L23.96 3.5l-.01-.01c.25-1.16-.42-1.61-1.42-1.2L1.67 10.06c-1.3.52-1.27 1.26-.23 1.59l5.55 1.73 12.88-7.89c.61-.42 1.17-.2.72.24"/>
  </symbol>

   <symbol id="twitter" viewBox="0 0 30 30" fill="currentColor">
    <path d="M26.37,26l-8.795-12.822l0.015,0.012L25.52,4h-2.65l-6.46,7.48L11.28,4H4.33l8.211,11.971L12.54,15.97L3.88,26h2.65 
      l7.182-8.322L19.42,26H26.37z M10.23,6l12.34,18h-2.1L8.12,6H10.23z"/>
  </symbol>

 
  <svg width="0" height="0" class="hidden">
  <symbol xmlns="http://www.w3.org/2000/svg" viewBox="0 0 24 24" id="doc">
    <g>
      <path fill="none" d="M0 0h24v24H0z"></path>
      <path d="M21 4H7a2 2 0 1 0 0 4h14v13a1 1 0 0 1-1 1H7a4 4 0 0 1-4-4V6a4 4 0 0 1 4-4h13a1 1 0 0 1 1 1v1zM5 18a2 2 0 0 0 2 2h12V10H7a3.982 3.982 0 0 1-2-.535V18zM20 7H7a1 1 0 1 1 0-2h13v2z"></path>
    </g>
  </symbol>
</svg>
 
</svg>