<svg width="0" height="0" class="hidden" xmlns="http://www.w3.org/2000/svg">
 
 // Header

   <symbol id="telegram" viewBox="0 0 24 24" fill="currentColor">
    <path d="M9.97 15.92L9.6 19c.57 0 .81-.24 1.1-.52l2.65-2.42 5.5 4.02c1.01.56 1.72.27 1.98-.94L23.96 3.5l-.01-.01c.25-1.16-.42-1.61-1.42-1.2L1.67 10.06c-1.3.52-1.27 1.26-.23 1.59l5.55 1.73 12.88-7.89c.61-.42 1.17-.2.72.24"/>
  </symbol>

   <symbol id="twitter" viewBox="0 0 30 30" fill="currentColor">
    <path d="M26.37,26l-8.795-12.822l0.015,0.012L25.52,4h-2.65l-6.46,7.48L11.28,4H4.33l8.211,11.971L12.54,15.97L3.88,26h2.65 
      l7.182-8.322L19.42,26H26.37z M10.23,6l12.34,18h-2.1L8.12,6H10.23z"/>
  </symbol>
 

  <symbol xmlns="http://www.w3.org/2000/svg" viewBox="0 0 24 24" id="doc">
    <g>
      <path fill="none" d="M0 0h24v24H0z"></path>
      <path d="M21 4H7a2 2 0 1 0 0 4h14v13a1 1 0 0 1-1 1H7a4 4 0 0 1-4-4V6a4 4 0 0 1 4-4h13a1 1 0 0 1 1 1v1zM5 18a2 2 0 0 0 2 2h12V10H7a3.982 3.982 0 0 1-2-.535V18zM20 7H7a1 1 0 1 1 0-2h13v2z"></path>
    </g>
  </symbol>


// Application


  <symbol version="1.1" xmlns="http://www.w3.org/2000/svg" xmlns:xlink="http://www.w3.org/1999/xlink" xmlnsSketch="http://www.bohemiancoding.com/sketch/ns" viewBox="-8 0 32 32" id="attachment">
    <g id="Page-1" stroke="none" stroke-width="1" fill="#fff" fill-rule="evenodd" sketchType="MSPage">
      <g id="Icon-Set" sketchType="MSLayerGroup" transform="translate(-212.000000, -151.000000)" fill="#fff">
        <path d="M226,155 L226,175 C226,178.313 223.313,181 220,181 C216.687,181 214,178.313 214,175 L214,157 C214,154.791 215.791,153 218,153 C220.209,153 222,154.791 222,157 L222,175 C222,176.104 221.104,177 220,177 C218.896,177 218,176.104 218,175 L218,159 L216,159 L216,175 C216,177.209 217.791,179 220,179 C222.209,179 224,177.209 224,175 L224,157 C224,153.687 221.313,151 218,151 C214.687,151 212,153.687 212,157 L212,176 C212.493,179.945 215.921,183 220,183 C224.079,183 227.507,179.945 228,176 L228,155 L226,155" id="attachment" sketchType="MSShapeGroup"></path>
      </g>
    </g>
  </symbol>
 
  <symbol xmlns="http://www.w3.org/2000/svg" viewBox="0 0 48 48" id="arrowTop">
    <title>arrow-block-up-solid</title>
    <g id="Layer_2">
      <g id="invisible_box">
        <rect width="48" height="48" fill="none"></rect>
      </g>
      <g id="Q3_icons">
        <path d="M24,4a2.2,2.2,0,0,0-1.5.6L4.6,24.1A2,2,0,0,0,6,27.6H16.1V40a2,2,0,0,0,2,2H29.9a2,2,0,0,0,2-2V27.6H42a2,2,0,0,0,1.4-3.5L25.5,4.6A2.2,2.2,0,0,0,24,4Z"></path>
      </g>
    </g>
  </symbol>     
  
   <symbol  xmlns="http://www.w3.org/2000/svg" viewBox="0 0 28 18" id="burger">
    <path d="M2 18H26C26.825 18 27.5 17.325 27.5 16.5C27.5 15.675 26.825 15 26 15H2C1.175 15 0.5 15.675 0.5 16.5C0.5 17.325 1.175 18 2 18ZM2 10.5H26C26.825 10.5 27.5 9.825 27.5 9C27.5 8.175 26.825 7.5 26 7.5H2C1.175 7.5 0.5 8.175 0.5 9C0.5 9.825 1.175 10.5 2 10.5ZM0.5 1.5C0.5 2.325 1.175 3 2 3H26C26.825 3 27.5 2.325 27.5 1.5C27.5 0.675 26.825 0 26 0H2C1.175 0 0.5 0.675 0.5 1.5Z" ></path>
  </symbol>  
  
  <symbol fill="none" xmlns="http://www.w3.org/2000/svg" viewBox="-0.5 0 25 25" id="cross">
    <path d="M3 21.32L21 3.32001" stroke="#000000" stroke-width="1.5" stroke-linecap="round" stroke-linejoin="round"></path>
    <path d="M3 3.32001L21 21.32" stroke="#000000" stroke-width="1.5" stroke-linecap="round" stroke-linejoin="round"></path>
  </symbol> 
 
</svg>